<svg viewBox="0 0 44 31" focusable="false" class="chakra-icon css-1v8iwcx"><path
    d="M29.4798 18.0696L22.3206 6.02909C22.2858 5.96965 22.2359 5.91981 22.1753 5.88559C22.1141 5.85077 22.045 5.83215 21.9748 5.83215C21.9045 5.83215 21.8355 5.84957 21.7742 5.88319C21.713 5.91681 21.6625 5.96604 21.6271 6.02488L19.4831 9.63271C19.4128 9.75099 19.3756 9.88488 19.3756 10.0212C19.3756 10.1575 19.4128 10.2913 19.4831 10.4096L24.1512 18.2641C24.2215 18.3824 24.3229 18.4802 24.4442 18.5487C24.5661 18.6165 24.7042 18.6526 24.8447 18.6526H29.1328C29.203 18.6526 29.2721 18.6346 29.3327 18.6003C29.3933 18.5661 29.4438 18.5169 29.4792 18.458C29.514 18.3992 29.5326 18.3319 29.5332 18.2641C29.5332 18.1963 29.5152 18.129 29.4798 18.0696Z"
    fill="#020202"
  /><path
    d="M10.7099 24.3614L17.8691 12.3209C17.9045 12.262 17.955 12.2128 18.0156 12.1792C18.0763 12.145 18.1453 12.127 18.2156 12.127C18.2858 12.127 18.3548 12.145 18.4155 12.1792C18.4761 12.2134 18.5266 12.262 18.562 12.3209L20.7072 15.9257C20.7775 16.044 20.8141 16.1779 20.8141 16.3148C20.8141 16.4517 20.7775 16.5855 20.7072 16.7038L16.0391 24.5583C15.9688 24.6766 15.868 24.7744 15.7467 24.8429C15.6248 24.9113 15.4873 24.9468 15.3468 24.9468H11.0569C10.9861 24.9468 10.917 24.9294 10.8558 24.8951C10.7946 24.8609 10.7435 24.8117 10.7087 24.7522C10.6733 24.6928 10.6553 24.6256 10.6553 24.5565C10.6553 24.4881 10.6745 24.4208 10.7105 24.3614H10.7099Z"
    fill="#020202"
  /><path
    d="M18.5654 24.9439H32.8838C32.9541 24.9439 33.0231 24.9259 33.0837 24.8917C33.1444 24.8575 33.1948 24.8082 33.2302 24.7494C33.2651 24.6899 33.2837 24.6233 33.2837 24.5548C33.2837 24.4864 33.2651 24.4198 33.2296 24.3603L31.088 20.7537C31.0178 20.6354 30.9169 20.5375 30.795 20.4691C30.6731 20.4007 30.535 20.3652 30.3945 20.3652H21.0571C20.9166 20.3652 20.7785 20.4007 20.6566 20.4691C20.5347 20.5375 20.4339 20.6354 20.3636 20.7537L18.2196 24.3603C18.1841 24.4192 18.1655 24.4864 18.1655 24.5548C18.1655 24.6233 18.1835 24.6899 18.219 24.7494C18.2538 24.8082 18.3042 24.8575 18.3655 24.8917C18.4261 24.9259 18.4951 24.9439 18.5654 24.9439Z"
    fill="#020202"
  /><path
    d="M3.55679 2.85823V27.606H6.47539V30.4643H0V0.000924682H6.47539V2.8592L3.55679 2.85823Z"
    fill="url(#paint0_linear_383_3910)"
  /><path
    d="M44 0.000972703V30.4633H37.5091V27.6051H40.4432V2.85828H37.5091V0L44 0.000972703Z"
    fill="url(#paint1_linear_383_3910)"
  /><defs><linearGradient
      id="paint0_linear_383_3910"
      x1="0"
      y1="0"
      x2="38.8664"
      y2="41.2816"
      gradientUnits="userSpaceOnUse"
    ><stop offset="0.24238" stop-color="#36BEFF" /><stop
        offset="1"
        stop-color="#733FF1"
      /></linearGradient><linearGradient
      id="paint1_linear_383_3910"
      x1="0"
      y1="0"
      x2="38.8664"
      y2="41.2816"
      gradientUnits="userSpaceOnUse"
    ><stop offset="0.24238" stop-color="#36BEFF" /><stop
        offset="1"
        stop-color="#733FF1"
      /></linearGradient></defs></svg>
